<?xml version="1.0" standalone="no"?>
<!DOCTYPE svg PUBLIC "-//W3C//DTD SVG 20010904//EN"
 "http://www.w3.org/TR/2001/REC-SVG-20010904/DTD/svg10.dtd">
<svg version="1.0" xmlns="http://www.w3.org/2000/svg"
 width="500.000000pt" height="500.000000pt" viewBox="0 0 500.000000 500.000000"
 preserveAspectRatio="xMidYMid meet">

<g transform="translate(0.000000,500.000000) scale(0.100000,-0.100000)"
fill="#000000" stroke="none">
<path d="M2275 4184 c-410 -62 -767 -251 -1037 -551 -218 -242 -355 -528 -413
-858 -19 -107 -22 -413 -5 -525 104 -697 633 -1259 1330 -1412 94 -20 131 -23
350 -23 218 0 256 3 350 23 429 94 805 345 1049 702 145 212 231 426 276 685
22 125 21 424 -1 553 -117 689 -625 1222 -1319 1383 -74 17 -131 21 -320 24
-126 2 -243 1 -260 -1z m505 -58 c518 -90 972 -431 1201 -902 131 -271 187
-567 161 -857 -14 -159 -32 -248 -78 -387 -178 -542 -638 -960 -1194 -1086
-749 -170 -1510 192 -1849 879 -131 266 -189 569 -163 860 14 159 32 248 78
387 173 525 596 923 1139 1073 50 14 128 30 175 36 47 6 96 13 110 15 50 9
337 -4 420 -18z"/>
<path d="M2295 4094 c-16 -3 -74 -14 -128 -25 -635 -131 -1138 -654 -1247
-1296 -27 -157 -27 -389 0 -546 56 -332 213 -631 456 -869 226 -221 482 -360
796 -430 91 -20 129 -23 328 -23 252 0 335 13 533 81 393 137 740 451 919 831
169 359 197 801 74 1176 -87 265 -216 469 -424 668 -210 202 -456 335 -752
406 -91 22 -132 25 -315 28 -115 2 -223 1 -240 -1z m263 -64 c4 -46 34 -150
42 -150 10 0 60 128 60 153 0 13 9 17 36 17 l36 0 -20 -32 c-11 -18 -37 -73
-57 -123 -45 -111 -60 -135 -84 -135 -22 0 -35 31 -75 171 -13 48 -29 97 -36
109 -11 20 -10 21 42 18 48 -3 53 -5 56 -28z m-346 -27 c9 -10 41 -59 71 -109
31 -50 63 -97 72 -104 24 -20 18 -27 -32 -39 -47 -12 -62 -6 -63 25 0 24 -27
34 -66 26 -37 -8 -39 -10 -39 -47 0 -29 -5 -40 -20 -46 -35 -13 -48 -11 -40 9
12 29 35 193 35 250 l0 52 33 0 c20 0 40 -7 49 -17z m719 -4 c34 -11 37 -14
27 -32 -15 -29 -67 -217 -68 -244 0 -27 2 -26 -41 -12 -19 6 -40 13 -48 15
-10 3 -11 7 -1 18 14 18 70 210 70 242 0 27 7 29 61 13z m268 -106 c106 -62
132 -123 91 -207 -44 -93 -124 -109 -241 -50 l-71 35 19 22 c20 22 107 185
117 220 7 23 12 22 85 -20z m-1269 -22 c38 -28 62 -76 62 -125 0 -66 -23 -100
-95 -140 -88 -49 -97 -52 -97 -29 0 23 -85 189 -112 219 -19 22 -19 22 14 42
104 65 172 74 228 33z m787 -210 c493 -96 865 -476 949 -969 24 -139 15 -353
-20 -483 -121 -457 -487 -794 -945 -874 -97 -17 -287 -19 -381 -5 -471 75
-855 427 -971 892 -29 117 -37 351 -16 473 85 487 456 867 942 965 125 25 315
26 442 1z m-1557 -656 c0 -8 -7 -32 -15 -52 -54 -139 -84 -401 -66 -579 11
-106 10 -136 -4 -123 -2 3 -9 47 -16 99 -14 113 -6 302 16 415 32 158 85 308
85 240z m2723 -72 c57 -192 78 -402 58 -577 -6 -55 -14 -102 -16 -105 -14 -13
-14 17 -4 127 17 183 -12 437 -66 575 -17 42 -19 67 -7 67 5 0 21 -39 35 -87z
m-2633 27 c0 -5 -7 -27 -15 -47 -46 -121 -70 -295 -62 -464 3 -74 9 -144 13
-156 4 -14 2 -23 -5 -23 -20 0 -26 54 -26 235 0 140 4 198 19 260 27 118 56
205 66 205 6 0 10 -4 10 -10z m2539 -55 c45 -144 56 -224 56 -405 0 -176 -6
-230 -26 -230 -7 0 -9 9 -5 23 4 12 10 79 13 149 8 169 -16 352 -62 471 -17
44 -19 57 -5 57 5 0 18 -29 29 -65z m-2356 -1024 c49 -92 49 -97 6 -129 -14
-10 -16 -7 -15 32 1 24 -3 48 -7 53 -10 9 -123 -48 -184 -94 l-42 -32 -25 41
-24 41 88 46 c125 66 137 75 124 98 -6 10 -24 24 -39 32 l-28 14 29 12 c39 17
58 -1 117 -114z m2290 62 c4 -3 19 -22 33 -44 24 -39 25 -39 89 -39 l64 0 -27
-45 c-25 -41 -29 -44 -57 -38 -48 11 -98 9 -102 -4 -3 -7 16 -22 44 -35 26
-12 50 -24 52 -25 3 -2 -33 -66 -46 -82 -2 -3 -13 5 -26 16 -30 29 -171 111
-202 119 -14 3 -25 10 -25 15 0 5 19 41 43 80 28 49 52 76 72 85 27 11 65 10
88 -3z m-2151 -270 c-22 -8 -82 -64 -82 -76 0 -15 41 -57 56 -57 15 0 74 66
74 82 0 7 18 -5 40 -27 l39 -39 -27 -16 c-15 -10 -64 -55 -109 -102 l-81 -86
-33 34 -32 33 46 42 47 41 -22 28 c-13 16 -28 29 -34 29 -7 1 -28 -17 -48 -39
-20 -22 -39 -40 -43 -40 -5 0 -20 15 -35 34 l-27 33 44 32 c24 17 72 62 107
100 l63 70 35 -36 c25 -25 31 -37 22 -40z m1942 28 c17 -18 16 -19 -17 -30
-19 -7 -43 -21 -53 -32 -18 -21 -18 -21 16 -51 l34 -31 10 24 c14 35 14 35 41
9 30 -28 31 -36 5 -43 -27 -7 -25 -23 6 -54 l25 -25 30 28 c21 20 29 37 29 63
l0 34 25 -23 c14 -13 25 -29 25 -36 0 -7 -30 -45 -68 -84 l-67 -73 -95 96
c-52 52 -102 97 -110 100 -11 3 5 25 55 76 38 39 75 71 81 71 6 0 19 -9 28
-19z m-1669 -241 c78 -52 87 -70 60 -106 -14 -18 -14 -18 -15 -1 0 20 -52 77
-69 77 -11 0 -51 -57 -51 -72 0 -5 10 -8 23 -8 34 0 37 -8 19 -41 -20 -35 -26
-36 -46 -8 -17 25 -30 19 -52 -23 -14 -28 -14 -31 3 -44 24 -19 58 -27 88 -22
20 4 23 2 15 -12 -15 -27 -39 -43 -57 -36 -9 4 -50 27 -90 53 l-74 46 19 21
c29 32 132 198 132 213 0 22 18 15 95 -37z m1464 26 c8 -6 20 -26 28 -43 7
-18 19 -33 27 -33 25 0 66 -51 66 -82 0 -46 -14 -62 -101 -118 -64 -41 -83
-49 -90 -39 -5 8 -9 17 -9 21 0 12 -108 174 -125 188 -23 19 -19 26 28 58 101
70 137 80 176 48z m-310 -151 c39 -20 55 -63 42 -109 -9 -34 -7 -40 20 -71 17
-19 39 -37 50 -40 31 -10 22 -20 -32 -34 -46 -12 -53 -12 -61 2 -18 33 -60 77
-74 77 -20 0 -17 -29 6 -75 11 -21 19 -39 17 -40 -16 -11 -86 -32 -91 -28 -3
4 -6 16 -6 29 0 12 -16 66 -35 121 -20 54 -38 105 -41 114 -5 13 10 22 68 42
87 30 100 31 137 12z m-744 -40 c111 -22 148 -63 114 -127 -8 -16 -8 -31 1
-59 15 -45 1 -93 -33 -111 -22 -11 -97 -6 -184 12 l-51 11 13 32 c7 18 21 83
31 145 11 61 21 112 24 112 3 0 41 -7 85 -15z m367 -42 c8 -10 32 -58 52 -108
21 -49 47 -105 58 -123 23 -38 14 -45 -48 -40 -33 3 -39 7 -46 36 -8 30 -11
32 -52 32 -46 0 -56 -10 -56 -56 0 -21 -5 -24 -35 -24 l-36 0 15 28 c22 42 66
202 66 239 0 31 2 33 33 33 20 0 40 -7 49 -17z"/>
<path d="M2166 3898 c-12 -45 -7 -58 19 -58 29 0 31 10 10 50 -19 36 -21 37
-29 8z"/>
<path d="M3168 3827 c-35 -52 -79 -150 -74 -163 15 -39 91 -1 120 60 38 80 -2
171 -46 103z"/>
<path d="M1787 3838 c-15 -12 -12 -21 31 -102 26 -49 52 -91 58 -93 19 -6 44
27 44 58 0 39 -32 102 -66 128 -31 24 -44 26 -67 9z"/>
<path d="M2340 3630 c-171 -30 -311 -81 -442 -163 -433 -271 -634 -795 -492
-1284 104 -358 383 -648 734 -763 766 -250 1538 338 1497 1140 -26 512 -395
945 -897 1055 -89 19 -322 28 -400 15z m433 -73 c251 -66 486 -231 629 -441
60 -87 126 -233 155 -343 24 -88 27 -115 27 -273 0 -158 -3 -185 -27 -273
-104 -386 -398 -680 -784 -784 -88 -24 -115 -27 -273 -27 -158 0 -185 3 -273
27 -386 104 -680 398 -784 784 -24 88 -27 115 -27 273 0 158 3 185 27 273 111
410 423 707 842 797 132 29 352 23 488 -13z"/>
<path d="M2390 3329 c-40 -20 -102 -35 -204 -49 -223 -32 -285 -97 -263 -275
10 -85 10 -91 1 -172 -5 -40 -1 -62 16 -100 l21 -48 15 40 c7 22 14 41 14 42
0 1 9 7 20 13 l20 11 -20 -33 c-35 -58 -23 -117 48 -227 19 -31 46 -78 59
-106 l25 -50 -5 50 c-3 28 -19 85 -36 127 -44 109 -47 128 -22 160 11 14 32
29 46 32 37 10 91 -17 111 -56 15 -29 15 -31 1 -20 -14 12 -15 10 -7 -20 14
-48 12 -154 -5 -223 -19 -81 -19 -161 3 -221 l17 -49 5 65 5 65 7 -52 c10 -75
39 -134 94 -193 52 -55 68 -63 54 -24 -6 14 -10 37 -9 52 l1 27 7 -25 c22 -72
76 -147 129 -182 66 -44 69 -43 64 21 -2 39 1 62 12 76 14 19 14 17 6 -17 -8
-40 1 -103 18 -120 14 -14 107 38 128 71 10 14 23 45 30 71 l14 45 -4 -47 c-2
-26 -12 -65 -23 -88 -11 -22 -16 -40 -12 -40 5 0 30 19 54 41 50 46 70 98 60
153 -7 32 -6 33 22 29 l28 -5 -23 17 c-12 9 -29 30 -38 47 l-16 30 23 -16 c31
-21 46 -20 26 2 -42 47 -67 192 -33 192 8 0 22 8 31 17 16 15 15 18 -18 35
-45 23 -48 28 -37 67 6 23 6 29 -3 24 -6 -4 -30 -8 -53 -9 -33 -1 -41 1 -37
12 3 10 0 12 -10 9 -8 -4 -21 -24 -30 -46 -8 -21 -21 -39 -27 -39 -6 0 -8 5
-4 13 6 9 4 9 -8 -1 -9 -7 -35 -16 -59 -21 -42 -8 -43 -8 -19 -19 l25 -11 -28
0 c-17 -1 -38 9 -52 24 -23 23 -25 23 -25 4 0 -24 43 -69 65 -69 9 0 14 -4 11
-9 -18 -29 86 -14 134 19 41 28 61 32 86 15 28 -18 32 -56 9 -75 -11 -9 -13
-16 -5 -24 19 -19 10 -26 -14 -11 -23 15 -27 15 -65 -4 -22 -12 -48 -21 -58
-21 -15 -1 -15 -3 6 -20 14 -12 18 -20 9 -20 -25 0 -57 30 -60 58 -3 25 -5 23
-18 -17 -12 -39 -12 -47 3 -74 10 -16 15 -32 13 -35 -9 -8 -66 56 -66 75 0 15
2 16 10 3 7 -11 10 -6 10 22 0 20 7 44 16 52 14 15 14 16 -3 16 -10 0 -35 -8
-56 -19 -20 -10 -34 -14 -31 -9 4 6 -4 5 -16 -2 -12 -6 -30 -30 -41 -53 -16
-36 -19 -38 -19 -17 0 14 8 37 17 50 l17 25 -24 -20 -23 -20 11 20 c5 11 22
31 36 44 l25 24 -21 17 c-22 17 -22 18 8 95 7 19 5 18 -18 -2 -13 -13 -28 -23
-33 -23 -5 0 -1 6 9 13 16 12 10 13 -42 9 -50 -4 -63 -1 -80 16 -22 22 -42 81
-42 122 l1 25 14 -25 c12 -23 13 -20 8 38 l-6 62 126 0 c133 0 137 -2 137 -52
0 -11 15 -35 34 -54 27 -27 42 -34 74 -34 32 0 45 6 66 30 14 17 28 46 32 65
10 53 21 51 29 -4 4 -27 13 -58 22 -68 13 -16 14 -16 9 -1 -4 13 2 20 19 24
46 11 74 70 56 117 -12 32 -33 39 -72 25 -24 -8 -37 -8 -51 1 -37 23 -107 29
-166 15 -60 -14 -292 -19 -292 -6 0 4 11 26 24 49 l24 42 -34 7 c-30 6 -74 1
-122 -12 -9 -2 -3 2 13 10 19 10 62 15 119 16 l90 0 -28 29 c-35 36 -129 87
-176 95 -19 4 -75 0 -125 -8 -49 -7 -91 -12 -93 -11 -2 2 15 11 37 21 31 13
41 24 45 49 4 17 23 51 42 74 41 47 58 48 24 2 -11 -17 -24 -46 -27 -64 l-5
-34 133 -8 c141 -9 190 -10 331 -4 75 4 90 1 115 -17 15 -11 34 -24 41 -28 24
-14 -5 30 -34 53 -15 12 -22 21 -17 21 18 0 90 -69 106 -102 9 -18 17 -26 17
-17 0 22 -53 102 -85 127 -35 28 -23 29 20 2 41 -25 78 -74 110 -142 30 -64
33 -49 4 26 -11 31 -41 78 -67 108 -47 52 -44 55 15 10 40 -29 99 -118 130
-192 27 -65 30 -56 7 21 -21 72 -57 140 -95 184 -38 42 -26 45 27 6 83 -59
134 -147 159 -268 l13 -68 1 55 c2 121 -45 236 -133 329 -38 41 -39 43 -8 22
43 -30 100 -99 135 -164 l28 -52 -6 40 c-15 90 -84 188 -174 246 -40 26 -42
29 -20 29 14 0 48 -6 75 -14 l49 -15 -35 31 c-47 40 -107 68 -150 68 -49 0
-99 -26 -215 -110 -113 -82 -161 -106 -225 -115 l-45 -6 50 18 c73 27 131 63
208 132 74 66 92 78 152 98 l40 13 -50 -6 c-63 -8 -93 -23 -183 -95 -76 -61
-113 -78 -71 -33 23 25 22 25 -25 -5 -27 -17 -52 -28 -55 -25 -8 8 73 78 127
110 23 14 42 27 42 29 0 6 -77 -13 -99 -24 -13 -7 -59 -46 -101 -86 -43 -40
-93 -78 -112 -84 -32 -11 -32 -10 15 30 52 45 115 132 141 194 9 21 15 39 14
40 -2 1 -19 -7 -38 -16z"/>
<path d="M1628 2579 c-29 -16 -22 -56 11 -74 47 -24 50 -39 8 -32 -28 4 -37 2
-37 -9 0 -10 12 -14 38 -14 69 0 85 47 26 82 -38 22 -34 50 4 29 27 -14 32
-14 32 4 0 8 -6 15 -12 15 -7 0 -22 2 -33 5 -11 3 -28 0 -37 -6z"/>
<path d="M3053 2580 c-13 -5 -23 -14 -23 -20 0 -13 13 -13 27 1 13 13 33 4 33
-16 0 -8 -13 -30 -30 -48 -16 -19 -30 -38 -30 -41 0 -4 21 -6 47 -4 37 2 49 7
51 21 3 16 0 18 -19 12 l-22 -7 21 27 c29 37 28 63 -4 75 -14 6 -26 10 -27 9
-1 0 -12 -4 -24 -9z"/>
<path d="M3190 2583 c-41 -15 -55 -87 -22 -116 64 -58 138 38 77 98 -25 26
-29 27 -55 18z m38 -72 c-4 -48 -32 -50 -36 -3 -5 49 4 68 24 51 10 -8 14 -25
12 -48z"/>
<path d="M3308 2583 c-10 -2 -18 -11 -18 -20 0 -12 3 -13 15 -3 8 6 19 9 25 5
19 -11 10 -41 -20 -70 -16 -16 -30 -33 -30 -37 0 -5 21 -8 47 -6 37 2 49 7 51
21 3 16 0 18 -20 12 l-23 -7 23 24 c27 30 28 64 3 78 -20 10 -25 11 -53 3z"/>
<path d="M1492 2515 l-3 -66 47 3 c26 2 49 8 51 14 2 7 -8 9 -27 6 -25 -4 -30
-1 -30 17 0 14 5 19 15 15 9 -4 15 0 15 10 0 9 -7 16 -15 16 -17 0 -20 25 -5
35 5 3 19 1 31 -6 17 -9 20 -8 17 3 -3 7 -23 14 -49 16 l-45 3 -2 -66z"/>
<path d="M1720 2565 c0 -13 4 -14 20 -5 19 10 20 8 20 -50 0 -53 2 -60 20 -60
18 0 20 7 20 60 0 58 1 60 20 50 16 -9 20 -8 20 5 0 12 -13 15 -60 15 -47 0
-60 -3 -60 -15z"/>
<path d="M1870 2515 l0 -65 38 0 c52 0 77 28 73 82 -2 29 -31 48 -72 48 l-39
0 0 -65z m74 19 c7 -26 -8 -64 -24 -64 -9 0 -12 15 -12 55 0 36 3 44 16 39 8
-3 17 -16 20 -30z"/>
<path d="M3436 2540 c-44 -49 -45 -60 -5 -60 24 0 30 -4 25 -15 -4 -11 2 -15
20 -15 19 0 25 4 21 14 -3 8 -1 17 6 20 9 5 9 7 0 12 -7 3 -13 23 -13 45 0 21
-4 39 -9 39 -5 0 -25 -18 -45 -40z m24 -25 c0 -8 -7 -15 -16 -15 -14 0 -14 3
-4 15 7 8 14 15 16 15 2 0 4 -7 4 -15z"/>
<path d="M2084 2186 c-19 -14 -28 -36 -53 -132 -8 -28 -18 -43 -31 -47 -11 -3
-20 -12 -20 -20 0 -28 62 -162 106 -228 64 -96 80 -103 28 -12 -40 71 -68 134
-89 203 -5 17 13 3 60 -48 37 -40 77 -78 89 -84 11 -6 -2 13 -30 43 -28 30
-57 66 -64 79 -11 21 -6 18 28 -12 59 -53 65 -47 12 9 -25 26 -34 39 -20 30
53 -36 57 -37 57 -19 0 9 -14 33 -31 51 l-31 35 35 -25 c58 -42 67 -44 35 -9
l-30 33 30 -20 c59 -39 57 -35 -14 34 -72 72 -82 91 -56 113 18 15 35 5 35
-22 0 -35 87 -108 202 -171 100 -55 107 -61 127 -108 17 -38 26 -49 44 -48
l22 0 -21 11 c-12 5 -24 22 -27 37 -9 46 -41 74 -147 131 -119 64 -190 124
-190 161 0 23 -16 49 -30 49 -3 0 -15 -6 -26 -14z m51 -216 c10 -11 16 -20 13
-20 -3 0 -13 9 -23 20 -10 11 -16 20 -13 20 3 0 13 -9 23 -20z"/>
<path d="M2245 1913 c-4 -10 -9 -57 -12 -104 -5 -72 -2 -93 15 -133 l21 -47
58 30 c32 16 78 43 103 60 53 36 78 33 134 -16 38 -35 92 -63 119 -63 15 0 30
47 43 134 l7 48 -53 -7 c-29 -4 -71 -16 -94 -26 -55 -25 -117 -24 -168 2 -23
12 -58 28 -77 35 l-36 14 40 -4 40 -5 -30 24 c-16 14 -26 25 -22 25 13 0 70
-31 91 -49 18 -15 18 -15 8 4 -36 69 -168 124 -187 78z"/>
<path d="M3612 1868 c-20 -20 -14 -33 29 -57 34 -19 43 -21 50 -10 15 24 10
47 -13 63 -27 19 -50 20 -66 4z"/>
<path d="M3197 1433 c-20 -19 19 -78 46 -67 20 7 23 44 5 62 -13 13 -41 16
-51 5z"/>
<path d="M3267 1332 c-15 -16 -14 -20 5 -50 23 -36 47 -41 72 -13 15 16 16 23
5 43 -22 42 -55 50 -82 20z"/>
<path d="M2898 1290 c-15 -9 -15 -15 -4 -48 10 -29 18 -37 37 -37 20 0 25 6
27 31 2 19 -3 38 -13 48 -19 18 -24 19 -47 6z"/>
<path d="M2234 1225 c-8 -34 1 -55 25 -55 22 0 38 38 27 65 -9 25 -45 18 -52
-10z"/>
<path d="M2215 1118 c-2 -7 -6 -26 -7 -42 -3 -24 2 -31 26 -39 24 -8 32 -7 43
9 8 11 13 33 11 49 -3 26 -8 30 -36 33 -20 2 -34 -2 -37 -10z"/>
<path d="M2562 1139 c-11 -40 -7 -49 17 -49 26 0 31 9 18 38 -18 44 -25 46
-35 11z"/>
</g>
</svg>
