<?xml version="1.0" standalone="no"?>
<!DOCTYPE svg PUBLIC "-//W3C//DTD SVG 20010904//EN"
 "http://www.w3.org/TR/2001/REC-SVG-20010904/DTD/svg10.dtd">
<svg version="1.0" xmlns="http://www.w3.org/2000/svg"
 width="500.000000pt" height="500.000000pt" viewBox="0 0 500.000000 500.000000"
 preserveAspectRatio="xMidYMid meet">

<g transform="translate(0.000000,500.000000) scale(0.100000,-0.100000)"
fill="#000000" stroke="none">
<path d="M2360 4144 c-14 -2 -63 -9 -110 -15 -106 -13 -292 -67 -408 -117
-371 -160 -685 -472 -848 -841 -197 -449 -188 -960 26 -1396 219 -446 630
-772 1109 -881 525 -119 1062 18 1467 374 549 483 709 1285 389 1947 -233 482
-681 820 -1205 911 -83 14 -370 27 -420 18z m470 -73 c342 -79 602 -227 842
-479 142 -150 270 -359 341 -557 14 -39 38 -125 53 -190 27 -113 28 -133 28
-345 0 -212 -1 -232 -28 -345 -15 -65 -39 -151 -53 -190 -164 -458 -543 -831
-1001 -985 -191 -64 -264 -75 -512 -75 -248 0 -321 11 -512 75 -469 157 -851
541 -1009 1012 -62 184 -73 262 -74 503 0 234 6 284 61 471 62 215 203 458
362 625 227 239 477 387 782 464 154 39 200 44 420 41 169 -2 222 -7 300 -25z"/>
<path d="M2450 4036 c0 -4 5 -16 11 -28 6 -11 22 -59 35 -107 40 -140 53 -171
75 -171 24 0 39 24 84 135 20 50 46 105 57 123 l20 32 -36 0 c-22 0 -36 -5
-36 -12 0 -22 -52 -158 -60 -158 -5 0 -16 35 -25 78 -10 42 -19 83 -21 90 -2
6 -16 12 -31 12 -15 0 -38 3 -50 6 -13 4 -23 3 -23 0z"/>
<path d="M2153 3993 c-20 -4 -23 -10 -23 -58 0 -63 -17 -198 -30 -238 -9 -26
-8 -27 18 -21 40 10 42 12 42 53 0 35 3 39 31 45 50 10 54 8 72 -28 16 -34 16
-34 59 -25 23 6 44 12 46 13 2 2 -19 37 -46 77 -27 41 -61 95 -77 122 -23 40
-55 71 -67 66 -2 -1 -13 -4 -25 -6z m55 -162 c-2 -9 -11 -17 -21 -19 -14 -3
-17 4 -17 40 l1 43 20 -24 c11 -13 18 -31 17 -40z"/>
<path d="M2870 3968 c0 -30 -48 -206 -66 -240 -14 -27 -13 -27 23 -37 21 -6
43 -11 48 -11 6 0 21 45 34 99 13 54 32 118 42 140 l18 42 -22 8 c-12 4 -34
11 -49 15 -24 6 -28 3 -28 -16z"/>
<path d="M3114 3893 c-11 -38 -88 -186 -111 -213 l-24 -29 23 -15 c62 -40 140
-68 176 -62 75 12 127 73 127 149 0 70 -26 105 -115 151 -63 34 -71 35 -76 19z
m100 -79 c35 -35 13 -120 -44 -168 -34 -28 -47 -31 -70 -16 -13 8 -8 24 33
105 27 52 52 95 57 95 5 0 16 -7 24 -16z"/>
<path d="M1745 3834 c-38 -20 -72 -38 -74 -40 -3 -2 5 -14 16 -27 26 -29 113
-191 113 -210 0 -29 15 -26 88 16 59 34 76 49 94 86 19 40 20 49 9 90 -19 73
-76 121 -143 121 -18 0 -64 -16 -103 -36z m120 -46 c22 -21 39 -49 46 -79 14
-52 9 -73 -20 -88 -18 -10 -24 -3 -65 72 -26 46 -46 91 -46 99 0 39 40 37 85
-4z"/>
<path d="M2305 3624 c-230 -41 -445 -154 -611 -320 -448 -447 -445 -1168 6
-1615 125 -123 276 -215 442 -270 744 -243 1498 306 1498 1090 0 546 -408
1022 -954 1116 -108 18 -274 18 -381 -1z m376 -49 c426 -74 764 -384 876 -803
24 -87 27 -115 27 -272 0 -158 -3 -185 -27 -275 -68 -254 -234 -485 -452 -632
-362 -243 -847 -243 -1210 0 -217 146 -384 378 -452 632 -24 90 -27 117 -27
275 0 158 3 185 27 273 112 416 447 725 870 802 98 18 267 18 368 0z"/>
<path d="M2390 3330 c-36 -19 -140 -43 -240 -55 -83 -11 -155 -41 -189 -80
-44 -50 -53 -96 -40 -191 12 -87 12 -86 3 -165 -5 -46 -2 -65 16 -105 l21 -49
15 40 c7 22 14 41 14 41 0 1 7 4 15 8 13 5 13 1 -1 -26 -26 -51 -14 -107 47
-206 29 -48 61 -107 71 -132 l19 -45 -5 60 c-3 36 -17 90 -36 134 -46 107 -41
160 16 181 31 12 90 -6 109 -33 18 -26 20 -41 3 -31 -8 5 -9 2 -3 -12 17 -40
17 -152 0 -239 -20 -99 -16 -195 8 -241 l16 -29 2 65 1 65 9 -57 c10 -72 39
-128 96 -189 51 -55 67 -62 53 -23 -22 56 -9 68 16 14 35 -75 65 -112 120
-149 26 -17 50 -31 53 -31 3 0 6 29 6 64 0 38 5 70 12 77 10 10 10 4 2 -24
-10 -38 2 -110 21 -122 15 -9 108 43 126 70 9 13 22 44 30 67 l14 43 -4 -43
c-2 -23 -13 -61 -25 -84 -11 -23 -19 -43 -17 -45 2 -2 26 17 54 42 56 51 77
98 68 151 -6 31 -5 34 18 34 l24 0 -29 29 c-34 34 -39 57 -10 41 29 -15 36
-12 18 8 -27 30 -47 89 -47 139 0 45 2 50 30 60 39 15 38 24 -8 48 -37 21 -41
31 -27 74 5 18 4 22 -6 15 -7 -4 -33 -9 -56 -10 -36 -2 -42 0 -32 12 6 8 8 14
3 14 -18 0 -32 -16 -47 -52 -9 -21 -21 -38 -27 -38 -6 0 -8 5 -4 11 3 6 -8 4
-24 -5 -17 -9 -46 -16 -64 -16 l-33 -1 25 -14 25 -14 -23 -1 c-13 0 -34 12
-48 27 l-26 28 4 -30 c2 -20 14 -36 37 -52 19 -13 30 -23 25 -24 -5 0 1 -4 14
-10 29 -11 91 2 129 28 44 31 64 35 89 18 28 -18 32 -56 9 -75 -11 -9 -13 -16
-5 -24 19 -19 10 -26 -14 -11 -20 14 -29 14 -48 4 -13 -7 -41 -18 -63 -24
l-39 -12 29 -17 c27 -15 27 -16 5 -10 -37 10 -50 23 -50 53 l-1 26 -14 -25
c-19 -33 -19 -64 1 -103 l17 -31 -24 16 c-13 9 -23 23 -23 32 1 9 -2 14 -6 11
-4 -3 -11 2 -14 11 -9 24 -7 31 4 14 7 -11 10 -7 10 19 0 19 7 43 17 53 15 17
15 18 -1 18 -9 0 -32 -6 -51 -14 -18 -8 -36 -12 -39 -8 -10 10 -56 -41 -65
-72 -9 -29 -9 -29 -10 -6 -1 14 6 35 14 48 15 20 15 21 -2 16 -10 -3 0 11 21
30 26 24 34 36 23 36 -28 0 -40 36 -22 69 22 43 19 58 -7 35 -12 -10 -18 -14
-15 -8 5 8 -6 10 -38 7 -86 -10 -114 13 -130 105 -8 49 -2 53 20 15 15 -27 15
-27 8 -3 -4 14 -8 45 -8 70 l0 45 121 3 121 3 11 -44 c18 -68 85 -117 136 -97
32 12 64 55 72 96 9 51 21 49 28 -4 3 -27 13 -57 22 -68 13 -16 15 -17 10 -1
-3 11 0 17 9 17 26 0 66 44 71 80 4 26 1 42 -14 60 -19 23 -21 23 -60 11 -30
-10 -45 -11 -55 -3 -30 26 -106 33 -171 17 -43 -11 -97 -15 -175 -13 l-112 3
25 47 25 48 -25 6 c-14 4 -48 4 -77 1 -34 -4 -44 -3 -27 3 14 4 65 8 114 9
l88 1 -48 40 c-100 83 -161 99 -294 77 -47 -8 -86 -13 -88 -12 -2 2 15 11 37
21 31 13 41 24 45 48 6 32 60 106 77 106 5 0 0 -13 -11 -28 -11 -15 -23 -44
-26 -63 l-6 -36 128 -8 c133 -9 205 -10 334 -4 75 4 100 -3 150 -38 28 -21 22
-5 -14 36 l-21 24 22 -12 c26 -13 83 -81 83 -98 0 -6 4 -15 10 -18 7 -4 7 3 0
19 -20 53 -40 84 -75 115 -43 38 -35 41 17 5 41 -29 89 -98 119 -171 17 -42
19 -44 13 -13 -10 60 -53 143 -97 189 -50 52 -25 42 34 -14 48 -46 84 -99 115
-175 27 -65 31 -56 8 21 -20 67 -55 137 -88 177 -34 40 -33 47 5 25 82 -48
148 -155 173 -279 l14 -69 1 60 c2 119 -40 223 -128 319 -39 43 -41 47 -14 28
46 -32 100 -98 133 -162 35 -67 41 -39 9 44 -23 63 -94 147 -158 188 -44 27
-44 28 -15 28 16 -1 47 -7 69 -15 21 -8 41 -13 43 -11 5 5 -69 61 -105 80 -42
21 -98 20 -148 -3 -22 -10 -91 -54 -153 -99 -71 -51 -133 -87 -164 -97 -71
-21 -105 -18 -43 3 73 25 133 63 210 133 67 60 130 98 170 100 11 0 14 3 8 6
-7 2 -36 0 -66 -7 -42 -8 -71 -25 -141 -80 -90 -72 -128 -91 -85 -43 l24 27
-27 -17 c-16 -9 -40 -25 -55 -34 -27 -17 -28 -17 -13 2 27 34 74 75 118 101
23 14 42 28 42 30 0 7 -66 -9 -95 -24 -16 -8 -57 -40 -90 -71 -79 -74 -96 -87
-120 -95 -12 -3 3 18 40 57 52 55 136 190 124 201 -2 2 -20 -4 -39 -14z"/>
<path d="M1628 2579 c-31 -18 -22 -55 20 -80 34 -21 35 -23 14 -27 -13 -2 -30
2 -38 8 -11 10 -14 9 -14 -9 0 -18 6 -21 39 -21 29 0 44 6 55 21 19 28 12 42
-31 63 -25 12 -33 20 -26 27 8 8 17 7 31 0 27 -14 32 -14 32 4 0 8 -6 15 -12
15 -7 0 -22 2 -33 5 -11 3 -28 0 -37 -6z"/>
<path d="M3044 2576 c-10 -8 -16 -18 -12 -22 4 -4 14 -1 22 5 17 14 36 7 36
-14 0 -8 -13 -30 -30 -48 -16 -19 -30 -38 -30 -41 0 -4 21 -6 47 -4 36 2 49 7
51 21 2 10 -3 17 -13 17 -15 0 -15 2 -1 22 21 30 20 55 -3 68 -27 14 -44 13
-67 -4z"/>
<path d="M3170 2570 c-24 -24 -27 -82 -4 -104 23 -24 70 -20 88 6 24 34 20 73
-10 97 -33 26 -49 26 -74 1z m55 -55 c0 -29 -4 -40 -15 -40 -11 0 -16 13 -18
43 -3 38 -1 43 15 40 14 -2 18 -13 18 -43z"/>
<path d="M3303 2583 c-7 -2 -13 -11 -13 -19 0 -11 4 -12 19 -5 41 23 42 -25 1
-64 -16 -16 -30 -32 -30 -37 0 -4 23 -8 50 -8 43 0 50 3 50 20 0 12 -7 20 -17
20 -15 0 -15 1 0 18 41 45 -3 99 -60 75z"/>
<path d="M1490 2515 l0 -66 47 3 c26 2 48 9 51 15 2 9 -5 11 -27 7 -24 -5 -31
-3 -31 10 0 9 7 16 15 16 8 0 15 7 15 15 0 8 -7 15 -15 15 -15 0 -21 21 -9 33
3 3 17 1 31 -4 19 -7 24 -6 21 3 -3 7 -25 14 -51 16 l-47 3 0 -66z"/>
<path d="M1720 2566 c0 -9 7 -12 20 -9 18 5 20 0 20 -51 0 -51 2 -56 23 -56
21 0 22 4 18 56 -3 54 -2 57 18 51 14 -3 21 0 21 9 0 10 -15 14 -60 14 -45 0
-60 -4 -60 -14z"/>
<path d="M1865 2515 l0 -65 41 0 c49 0 77 26 77 72 0 39 -25 58 -77 58 l-41 0
0 -65z m75 26 c7 -13 7 -28 0 -45 -15 -40 -30 -31 -30 19 0 47 12 58 30 26z"/>
<path d="M3437 2542 c-45 -46 -47 -62 -6 -62 24 0 30 -4 25 -15 -4 -11 2 -15
20 -15 19 0 25 4 21 14 -3 8 -1 17 6 19 9 3 9 8 0 18 -7 7 -13 28 -13 46 0 18
-4 33 -8 33 -4 0 -25 -17 -45 -38z m23 -27 c0 -8 -7 -15 -16 -15 -14 0 -14 3
-4 15 7 8 14 15 16 15 2 0 4 -7 4 -15z"/>
<path d="M2076 2182 c-9 -11 -21 -35 -26 -53 -5 -19 -14 -53 -20 -76 -8 -32
-16 -43 -30 -43 -10 0 -21 -4 -24 -8 -8 -13 61 -171 104 -237 48 -74 100 -128
58 -60 -42 68 -85 157 -102 213 l-15 54 65 -71 c37 -40 76 -77 88 -83 11 -6
-3 15 -32 46 -66 73 -90 116 -35 64 56 -54 66 -47 13 9 -25 26 -34 39 -20 30
48 -32 63 -40 56 -28 -4 6 -2 11 5 11 7 0 -3 16 -22 37 -36 38 -27 36 31 -6
l35 -25 -30 34 -30 33 39 -23 c33 -20 28 -12 -33 48 -73 73 -82 91 -56 112 19
15 35 5 35 -24 0 -41 103 -122 246 -194 54 -27 64 -37 83 -81 16 -39 27 -51
43 -51 20 0 20 1 5 13 -9 6 -27 32 -39 57 -17 34 -36 53 -76 75 -207 118 -216
125 -262 225 -11 22 -34 23 -54 2z m65 -219 c13 -16 12 -17 -3 -4 -17 13 -22
21 -14 21 2 0 10 -8 17 -17z"/>
<path d="M2241 1893 c-22 -77 -10 -210 21 -250 11 -14 88 21 163 73 53 36 88
33 138 -12 39 -36 93 -64 121 -64 10 0 20 23 30 69 26 113 25 115 -36 107 -28
-4 -64 -14 -81 -22 -47 -25 -129 -30 -163 -10 -16 9 -51 25 -79 36 -53 20 -44
26 15 11 32 -9 33 -9 15 4 -59 41 -62 47 -20 30 21 -9 47 -23 57 -32 32 -29
19 2 -14 35 -37 35 -94 62 -132 62 -20 0 -27 -7 -35 -37z"/>
<path d="M1116 2933 c-48 -158 -59 -236 -60 -418 -1 -174 8 -265 25 -265 7 0
7 25 2 73 -21 189 0 433 52 596 27 82 30 101 17 101 -5 0 -21 -39 -36 -87z"/>
<path d="M3840 3008 c0 -7 11 -47 25 -89 51 -161 71 -390 52 -586 -6 -55 -5
-83 2 -83 30 0 36 377 7 515 -21 104 -67 255 -78 255 -4 0 -8 -6 -8 -12z"/>
<path d="M1207 2893 c-39 -122 -57 -253 -56 -397 1 -154 9 -218 28 -224 11 -4
12 1 7 19 -4 13 -10 87 -13 164 -6 156 8 268 52 418 29 100 28 97 15 97 -5 0
-20 -35 -33 -77z"/>
<path d="M3753 2953 c64 -220 82 -347 73 -512 -3 -64 -9 -129 -12 -145 -5 -22
-4 -28 7 -24 34 11 37 350 5 498 -22 102 -55 200 -68 200 -6 0 -8 -8 -5 -17z"/>
<path d="M1263 2038 c-30 -14 -29 -24 2 -32 13 -3 29 -16 36 -27 13 -26 7 -31
-118 -95 -51 -27 -93 -50 -93 -51 0 -2 9 -22 21 -44 19 -37 22 -40 37 -26 22
20 191 117 203 117 12 0 22 -45 16 -76 -4 -23 -3 -24 16 -11 41 27 42 41 7
108 -38 74 -88 149 -98 148 -4 0 -17 -5 -29 -11z"/>
<path d="M3594 1990 c-24 -9 -57 -51 -97 -121 l-26 -47 62 -30 c34 -17 92 -51
129 -75 l67 -45 25 42 24 41 -26 10 c-48 18 -72 35 -72 52 0 13 8 14 50 9 28
-4 56 -9 63 -12 12 -4 67 63 67 81 0 3 -29 5 -64 5 l-65 0 -22 39 c-30 53 -68
70 -115 51z m40 -91 c30 -24 31 -28 12 -54 -13 -18 -14 -18 -50 4 -38 24 -44
39 -24 59 17 17 32 15 62 -9z"/>
<path d="M1450 1781 c0 -11 -36 -48 -129 -134 l-75 -68 35 -35 36 -35 23 34
c37 55 57 63 86 36 13 -12 24 -28 24 -35 0 -15 -66 -74 -82 -74 -7 0 5 -18 26
-39 l39 -40 27 37 c15 20 62 66 103 102 42 36 77 67 77 71 0 3 -15 19 -33 37
l-33 32 -30 -40 c-16 -21 -35 -42 -43 -45 -16 -6 -61 32 -61 51 0 14 66 74 81
74 6 0 -4 18 -21 40 -30 38 -50 50 -50 31z"/>
<path d="M3355 1689 c-50 -51 -66 -73 -55 -76 8 -3 58 -48 110 -99 l94 -94 63
62 c35 34 66 70 69 80 5 15 -23 67 -36 68 -3 0 -5 -14 -6 -31 -1 -18 -12 -41
-29 -60 l-29 -29 -28 27 c-34 33 -35 41 -3 49 32 8 31 14 -4 48 l-29 27 -11
-31 -11 -32 -30 22 c-16 12 -30 28 -30 35 0 23 42 55 72 55 15 0 28 4 28 9 0
12 -40 41 -55 41 -6 0 -42 -32 -80 -71z"/>
<path d="M1692 1523 c-5 -16 -39 -72 -75 -126 l-65 -99 76 -49 c42 -27 84 -49
93 -49 8 0 26 11 39 25 l23 25 -37 0 c-34 0 -96 23 -96 36 0 3 7 18 15 34 18
35 37 38 57 8 14 -21 14 -21 35 15 l22 36 -30 6 c-34 8 -35 10 -9 53 16 26 24
31 38 23 25 -13 48 -42 57 -70 l7 -24 14 24 c24 43 16 55 -64 108 -43 28 -81
51 -84 51 -3 0 -11 -12 -16 -27z"/>
<path d="M3112 1494 c-40 -25 -72 -49 -72 -54 0 -4 7 -13 15 -20 20 -17 121
-171 130 -199 3 -11 10 -21 15 -21 5 0 40 20 77 44 104 67 122 95 99 151 -10
23 -26 39 -50 49 -20 8 -36 21 -36 29 0 8 -9 26 -21 41 -31 40 -72 35 -157
-20z m94 -40 c16 -23 16 -27 1 -41 -20 -20 -38 -13 -57 21 -12 24 -12 28 0 36
24 16 39 11 56 -16z m70 -72 c6 -4 17 -18 24 -31 11 -22 10 -27 -15 -48 -31
-27 -45 -21 -65 28 -11 26 -10 32 6 44 21 16 34 18 50 7z"/>
<path d="M2813 1363 c-67 -23 -89 -42 -64 -57 9 -6 62 -167 75 -228 l6 -27 45
16 c25 8 45 16 45 18 0 1 -9 24 -21 50 -16 36 -18 50 -9 59 9 8 22 -1 55 -38
l44 -49 45 13 c40 11 63 30 36 30 -5 0 -25 17 -45 37 -35 36 -36 39 -29 90 6
49 4 54 -24 83 -37 37 -61 37 -159 3z m87 -43 c18 -33 9 -74 -17 -78 -18 -3
-24 4 -34 38 -11 35 -10 43 2 51 22 14 37 11 49 -11z"/>
<path d="M2110 1328 c0 -35 -39 -227 -50 -248 -9 -16 -4 -20 42 -30 88 -18
163 -23 185 -12 34 18 48 66 33 111 -9 28 -9 43 -1 59 33 62 -3 105 -107 127
-96 20 -102 19 -102 -7z m128 -66 c4 -26 -13 -52 -35 -52 -18 0 -27 24 -19 56
9 33 49 30 54 -4z m0 -124 c5 -44 -14 -69 -46 -62 -39 10 -43 16 -31 57 9 35
13 38 42 35 26 -2 33 -8 35 -30z"/>
<path d="M2490 1283 c0 -35 -46 -207 -65 -247 -18 -36 -15 -40 24 -31 24 5 31
12 31 30 0 45 10 55 55 55 44 0 55 -10 55 -51 0 -16 7 -19 56 -19 31 0 54 3
52 8 -2 4 -23 48 -46 97 -85 183 -83 180 -124 183 -36 3 -38 1 -38 -25z m60
-135 c0 -12 -8 -18 -24 -18 -23 0 -23 1 -13 41 10 41 10 41 23 18 7 -13 13
-32 14 -41z"/>
</g>
</svg>
